<?xml version="1.0" encoding="utf-8" standalone="no"?>
<!DOCTYPE svg PUBLIC "-//W3C//DTD SVG 1.1//EN"
  "http://www.w3.org/Graphics/SVG/1.1/DTD/svg11.dtd">
<!-- Created with matplotlib (http://matplotlib.org/) -->
<svg height="345.6pt" version="1.1" viewBox="0 0 460.8 345.6" width="460.8pt" xmlns="http://www.w3.org/2000/svg" xmlns:xlink="http://www.w3.org/1999/xlink">
 <defs>
  <style type="text/css">
*{stroke-linecap:butt;stroke-linejoin:round;}
  </style>
 </defs>
 <g id="figure_1">
  <g id="patch_1">
   <path d="M 0 345.6 
L 460.8 345.6 
L 460.8 0 
L 0 0 
z
" style="fill:#ffffff;"/>
  </g>
  <g id="axes_1">
   <g id="patch_2">
    <path d="M 57.6 307.584 
L 414.72 307.584 
L 414.72 41.472 
L 57.6 41.472 
z
" style="fill:#ffffff;"/>
   </g>
   <g id="PathCollection_1">
    <defs>
     <path d="M 0 3 
C 0.795609 3 1.55874 2.683901 2.12132 2.12132 
C 2.683901 1.55874 3 0.795609 3 0 
C 3 -0.795609 2.683901 -1.55874 2.12132 -2.12132 
C 1.55874 -2.683901 0.795609 -3 0 -3 
C -0.795609 -3 -1.55874 -2.683901 -2.12132 -2.12132 
C -2.683901 -1.55874 -3 -0.795609 -3 0 
C -3 0.795609 -2.683901 1.55874 -2.12132 2.12132 
C -1.55874 2.683901 -0.795609 3 0 3 
z
" id="m74887f3ef6" style="stroke:#ff0000;"/>
    </defs>
    <g clip-path="url(#pe4eddc7341)">
     <use style="fill:#ff0000;stroke:#ff0000;" x="332.403001" xlink:href="#m74887f3ef6" y="53.670534"/>
     <use style="fill:#ff0000;stroke:#ff0000;" x="268.241" xlink:href="#m74887f3ef6" y="179.992134"/>
     <use style="fill:#ff0000;stroke:#ff0000;" x="332.403001" xlink:href="#m74887f3ef6" y="142.095654"/>
     <use style="fill:#ff0000;stroke:#ff0000;" x="380.524502" xlink:href="#m74887f3ef6" y="255.785095"/>
     <use style="fill:#ff0000;stroke:#ff0000;" x="348.443502" xlink:href="#m74887f3ef6" y="66.302694"/>
     <use style="fill:#ff0000;stroke:#ff0000;" x="284.281501" xlink:href="#m74887f3ef6" y="78.934854"/>
     <use style="fill:#ff0000;stroke:#ff0000;" x="300.322001" xlink:href="#m74887f3ef6" y="116.831334"/>
     <use style="fill:#ff0000;stroke:#ff0000;" x="252.2005" xlink:href="#m74887f3ef6" y="116.831334"/>
     <use style="fill:#ff0000;stroke:#ff0000;" x="364.484002" xlink:href="#m74887f3ef6" y="179.992134"/>
     <use style="fill:#ff0000;stroke:#ff0000;" x="107.835998" xlink:href="#m74887f3ef6" y="53.670534"/>
     <use style="fill:#ff0000;stroke:#ff0000;" x="396.565002" xlink:href="#m74887f3ef6" y="255.785095"/>
     <use style="fill:#ff0000;stroke:#ff0000;" x="396.565002" xlink:href="#m74887f3ef6" y="116.831334"/>
     <use style="fill:#ff0000;stroke:#ff0000;" x="396.565002" xlink:href="#m74887f3ef6" y="179.992134"/>
     <use style="fill:#ff0000;stroke:#ff0000;" x="204.079" xlink:href="#m74887f3ef6" y="116.831334"/>
     <use style="fill:#ff0000;stroke:#ff0000;" x="380.524502" xlink:href="#m74887f3ef6" y="78.934854"/>
     <use style="fill:#ff0000;stroke:#ff0000;" x="252.2005" xlink:href="#m74887f3ef6" y="78.934854"/>
     <use style="fill:#ff0000;stroke:#ff0000;" x="188.038499" xlink:href="#m74887f3ef6" y="91.567014"/>
     <use style="fill:#ff0000;stroke:#ff0000;" x="204.079" xlink:href="#m74887f3ef6" y="129.463494"/>
     <use style="fill:#ff0000;stroke:#ff0000;" x="252.2005" xlink:href="#m74887f3ef6" y="91.567014"/>
     <use style="fill:#ff0000;stroke:#ff0000;" x="300.322001" xlink:href="#m74887f3ef6" y="179.992134"/>
     <use style="fill:#ff0000;stroke:#ff0000;" x="380.524502" xlink:href="#m74887f3ef6" y="179.992134"/>
     <use style="fill:#ff0000;stroke:#ff0000;" x="204.079" xlink:href="#m74887f3ef6" y="104.199174"/>
     <use style="fill:#ff0000;stroke:#ff0000;" x="332.403001" xlink:href="#m74887f3ef6" y="217.888614"/>
     <use style="fill:#ff0000;stroke:#ff0000;" x="364.484002" xlink:href="#m74887f3ef6" y="116.831334"/>
     <use style="fill:#ff0000;stroke:#ff0000;" x="348.443502" xlink:href="#m74887f3ef6" y="66.302694"/>
    </g>
   </g>
   <g id="PathCollection_2">
    <defs>
     <path d="M 0 3 
C 0.795609 3 1.55874 2.683901 2.12132 2.12132 
C 2.683901 1.55874 3 0.795609 3 0 
C 3 -0.795609 2.683901 -1.55874 2.12132 -2.12132 
C 1.55874 -2.683901 0.795609 -3 0 -3 
C -0.795609 -3 -1.55874 -2.683901 -2.12132 -2.12132 
C -2.683901 -1.55874 -3 -0.795609 -3 0 
C -3 0.795609 -2.683901 1.55874 -2.12132 2.12132 
C -1.55874 2.683901 -0.795609 3 0 3 
z
" id="me6b804533d" style="stroke:#1f77b4;"/>
    </defs>
    <g clip-path="url(#pe4eddc7341)">
     <use style="fill:#1f77b4;stroke:#1f77b4;" x="284.281501" xlink:href="#me6b804533d" y="281.049415"/>
     <use style="fill:#1f77b4;stroke:#1f77b4;" x="268.241" xlink:href="#me6b804533d" y="243.152935"/>
     <use style="fill:#1f77b4;stroke:#1f77b4;" x="155.957499" xlink:href="#me6b804533d" y="154.727814"/>
     <use style="fill:#1f77b4;stroke:#1f77b4;" x="123.876498" xlink:href="#me6b804533d" y="230.520774"/>
     <use style="fill:#1f77b4;stroke:#1f77b4;" x="364.484002" xlink:href="#me6b804533d" y="268.417255"/>
     <use style="fill:#1f77b4;stroke:#1f77b4;" x="139.916999" xlink:href="#me6b804533d" y="281.049415"/>
     <use style="fill:#1f77b4;stroke:#1f77b4;" x="300.322001" xlink:href="#me6b804533d" y="255.785095"/>
     <use style="fill:#1f77b4;stroke:#1f77b4;" x="107.835998" xlink:href="#me6b804533d" y="217.888614"/>
     <use style="fill:#1f77b4;stroke:#1f77b4;" x="396.565002" xlink:href="#me6b804533d" y="293.681575"/>
     <use style="fill:#1f77b4;stroke:#1f77b4;" x="107.835998" xlink:href="#me6b804533d" y="91.567014"/>
     <use style="fill:#1f77b4;stroke:#1f77b4;" x="220.1195" xlink:href="#me6b804533d" y="167.359974"/>
     <use style="fill:#1f77b4;stroke:#1f77b4;" x="348.443502" xlink:href="#me6b804533d" y="268.417255"/>
     <use style="fill:#1f77b4;stroke:#1f77b4;" x="75.754998" xlink:href="#me6b804533d" y="281.049415"/>
     <use style="fill:#1f77b4;stroke:#1f77b4;" x="171.997999" xlink:href="#me6b804533d" y="217.888614"/>
     <use style="fill:#1f77b4;stroke:#1f77b4;" x="139.916999" xlink:href="#me6b804533d" y="268.417255"/>
     <use style="fill:#1f77b4;stroke:#1f77b4;" x="316.362501" xlink:href="#me6b804533d" y="255.785095"/>
     <use style="fill:#1f77b4;stroke:#1f77b4;" x="107.835998" xlink:href="#me6b804533d" y="167.359974"/>
     <use style="fill:#1f77b4;stroke:#1f77b4;" x="139.916999" xlink:href="#me6b804533d" y="268.417255"/>
     <use style="fill:#1f77b4;stroke:#1f77b4;" x="123.876498" xlink:href="#me6b804533d" y="116.831334"/>
     <use style="fill:#1f77b4;stroke:#1f77b4;" x="364.484002" xlink:href="#me6b804533d" y="293.681575"/>
     <use style="fill:#1f77b4;stroke:#1f77b4;" x="171.997999" xlink:href="#me6b804533d" y="230.520774"/>
     <use style="fill:#1f77b4;stroke:#1f77b4;" x="300.322001" xlink:href="#me6b804533d" y="217.888614"/>
     <use style="fill:#1f77b4;stroke:#1f77b4;" x="123.876498" xlink:href="#me6b804533d" y="205.256454"/>
     <use style="fill:#1f77b4;stroke:#1f77b4;" x="204.079" xlink:href="#me6b804533d" y="281.049415"/>
     <use style="fill:#1f77b4;stroke:#1f77b4;" x="188.038499" xlink:href="#me6b804533d" y="255.785095"/>
    </g>
   </g>
   <g id="matplotlib.axis_1">
    <g id="xtick_1">
     <g id="line2d_1">
      <defs>
       <path d="M 0 0 
L 0 3.5 
" id="m87ade56462" style="stroke:#000000;stroke-width:0.8;"/>
      </defs>
      <g>
       <use style="stroke:#000000;stroke-width:0.8;" x="75.754998" xlink:href="#m87ade56462" y="307.584"/>
      </g>
     </g>
     <g id="text_1">
      <!-- −10.0 -->
      <defs>
       <path d="M 10.59375 35.5 
L 73.1875 35.5 
L 73.1875 27.203125 
L 10.59375 27.203125 
z
" id="DejaVuSans-2212"/>
       <path d="M 12.40625 8.296875 
L 28.515625 8.296875 
L 28.515625 63.921875 
L 10.984375 60.40625 
L 10.984375 69.390625 
L 28.421875 72.90625 
L 38.28125 72.90625 
L 38.28125 8.296875 
L 54.390625 8.296875 
L 54.390625 0 
L 12.40625 0 
z
" id="DejaVuSans-31"/>
       <path d="M 31.78125 66.40625 
Q 24.171875 66.40625 20.328125 58.90625 
Q 16.5 51.421875 16.5 36.375 
Q 16.5 21.390625 20.328125 13.890625 
Q 24.171875 6.390625 31.78125 6.390625 
Q 39.453125 6.390625 43.28125 13.890625 
Q 47.125 21.390625 47.125 36.375 
Q 47.125 51.421875 43.28125 58.90625 
Q 39.453125 66.40625 31.78125 66.40625 
z
M 31.78125 74.21875 
Q 44.046875 74.21875 50.515625 64.515625 
Q 56.984375 54.828125 56.984375 36.375 
Q 56.984375 17.96875 50.515625 8.265625 
Q 44.046875 -1.421875 31.78125 -1.421875 
Q 19.53125 -1.421875 13.0625 8.265625 
Q 6.59375 17.96875 6.59375 36.375 
Q 6.59375 54.828125 13.0625 64.515625 
Q 19.53125 74.21875 31.78125 74.21875 
z
" id="DejaVuSans-30"/>
       <path d="M 10.6875 12.40625 
L 21 12.40625 
L 21 0 
L 10.6875 0 
z
" id="DejaVuSans-2e"/>
      </defs>
      <g transform="translate(60.432341 322.182437)scale(0.1 -0.1)">
       <use xlink:href="#DejaVuSans-2212"/>
       <use x="83.789062" xlink:href="#DejaVuSans-31"/>
       <use x="147.412109" xlink:href="#DejaVuSans-30"/>
       <use x="211.035156" xlink:href="#DejaVuSans-2e"/>
       <use x="242.822266" xlink:href="#DejaVuSans-30"/>
      </g>
     </g>
    </g>
    <g id="xtick_2">
     <g id="line2d_2">
      <g>
       <use style="stroke:#000000;stroke-width:0.8;" x="115.856248" xlink:href="#m87ade56462" y="307.584"/>
      </g>
     </g>
     <g id="text_2">
      <!-- −7.5 -->
      <defs>
       <path d="M 8.203125 72.90625 
L 55.078125 72.90625 
L 55.078125 68.703125 
L 28.609375 0 
L 18.3125 0 
L 43.21875 64.59375 
L 8.203125 64.59375 
z
" id="DejaVuSans-37"/>
       <path d="M 10.796875 72.90625 
L 49.515625 72.90625 
L 49.515625 64.59375 
L 19.828125 64.59375 
L 19.828125 46.734375 
Q 21.96875 47.46875 24.109375 47.828125 
Q 26.265625 48.1875 28.421875 48.1875 
Q 40.625 48.1875 47.75 41.5 
Q 54.890625 34.8125 54.890625 23.390625 
Q 54.890625 11.625 47.5625 5.09375 
Q 40.234375 -1.421875 26.90625 -1.421875 
Q 22.3125 -1.421875 17.546875 -0.640625 
Q 12.796875 0.140625 7.71875 1.703125 
L 7.71875 11.625 
Q 12.109375 9.234375 16.796875 8.0625 
Q 21.484375 6.890625 26.703125 6.890625 
Q 35.15625 6.890625 40.078125 11.328125 
Q 45.015625 15.765625 45.015625 23.390625 
Q 45.015625 31 40.078125 35.4375 
Q 35.15625 39.890625 26.703125 39.890625 
Q 22.75 39.890625 18.8125 39.015625 
Q 14.890625 38.140625 10.796875 36.28125 
z
" id="DejaVuSans-35"/>
      </defs>
      <g transform="translate(103.714842 322.182437)scale(0.1 -0.1)">
       <use xlink:href="#DejaVuSans-2212"/>
       <use x="83.789062" xlink:href="#DejaVuSans-37"/>
       <use x="147.412109" xlink:href="#DejaVuSans-2e"/>
       <use x="179.199219" xlink:href="#DejaVuSans-35"/>
      </g>
     </g>
    </g>
    <g id="xtick_3">
     <g id="line2d_3">
      <g>
       <use style="stroke:#000000;stroke-width:0.8;" x="155.957499" xlink:href="#m87ade56462" y="307.584"/>
      </g>
     </g>
     <g id="text_3">
      <!-- −5.0 -->
      <g transform="translate(143.816093 322.182437)scale(0.1 -0.1)">
       <use xlink:href="#DejaVuSans-2212"/>
       <use x="83.789062" xlink:href="#DejaVuSans-35"/>
       <use x="147.412109" xlink:href="#DejaVuSans-2e"/>
       <use x="179.199219" xlink:href="#DejaVuSans-30"/>
      </g>
     </g>
    </g>
    <g id="xtick_4">
     <g id="line2d_4">
      <g>
       <use style="stroke:#000000;stroke-width:0.8;" x="196.058749" xlink:href="#m87ade56462" y="307.584"/>
      </g>
     </g>
     <g id="text_4">
      <!-- −2.5 -->
      <defs>
       <path d="M 19.1875 8.296875 
L 53.609375 8.296875 
L 53.609375 0 
L 7.328125 0 
L 7.328125 8.296875 
Q 12.9375 14.109375 22.625 23.890625 
Q 32.328125 33.6875 34.8125 36.53125 
Q 39.546875 41.84375 41.421875 45.53125 
Q 43.3125 49.21875 43.3125 52.78125 
Q 43.3125 58.59375 39.234375 62.25 
Q 35.15625 65.921875 28.609375 65.921875 
Q 23.96875 65.921875 18.8125 64.3125 
Q 13.671875 62.703125 7.8125 59.421875 
L 7.8125 69.390625 
Q 13.765625 71.78125 18.9375 73 
Q 24.125 74.21875 28.421875 74.21875 
Q 39.75 74.21875 46.484375 68.546875 
Q 53.21875 62.890625 53.21875 53.421875 
Q 53.21875 48.921875 51.53125 44.890625 
Q 49.859375 40.875 45.40625 35.40625 
Q 44.1875 33.984375 37.640625 27.21875 
Q 31.109375 20.453125 19.1875 8.296875 
z
" id="DejaVuSans-32"/>
      </defs>
      <g transform="translate(183.917343 322.182437)scale(0.1 -0.1)">
       <use xlink:href="#DejaVuSans-2212"/>
       <use x="83.789062" xlink:href="#DejaVuSans-32"/>
       <use x="147.412109" xlink:href="#DejaVuSans-2e"/>
       <use x="179.199219" xlink:href="#DejaVuSans-35"/>
      </g>
     </g>
    </g>
    <g id="xtick_5">
     <g id="line2d_5">
      <g>
       <use style="stroke:#000000;stroke-width:0.8;" x="236.16" xlink:href="#m87ade56462" y="307.584"/>
      </g>
     </g>
     <g id="text_5">
      <!-- 0.0 -->
      <g transform="translate(228.208437 322.182437)scale(0.1 -0.1)">
       <use xlink:href="#DejaVuSans-30"/>
       <use x="63.623047" xlink:href="#DejaVuSans-2e"/>
       <use x="95.410156" xlink:href="#DejaVuSans-30"/>
      </g>
     </g>
    </g>
    <g id="xtick_6">
     <g id="line2d_6">
      <g>
       <use style="stroke:#000000;stroke-width:0.8;" x="276.261251" xlink:href="#m87ade56462" y="307.584"/>
      </g>
     </g>
     <g id="text_6">
      <!-- 2.5 -->
      <g transform="translate(268.309688 322.182437)scale(0.1 -0.1)">
       <use xlink:href="#DejaVuSans-32"/>
       <use x="63.623047" xlink:href="#DejaVuSans-2e"/>
       <use x="95.410156" xlink:href="#DejaVuSans-35"/>
      </g>
     </g>
    </g>
    <g id="xtick_7">
     <g id="line2d_7">
      <g>
       <use style="stroke:#000000;stroke-width:0.8;" x="316.362501" xlink:href="#m87ade56462" y="307.584"/>
      </g>
     </g>
     <g id="text_7">
      <!-- 5.0 -->
      <g transform="translate(308.410939 322.182437)scale(0.1 -0.1)">
       <use xlink:href="#DejaVuSans-35"/>
       <use x="63.623047" xlink:href="#DejaVuSans-2e"/>
       <use x="95.410156" xlink:href="#DejaVuSans-30"/>
      </g>
     </g>
    </g>
    <g id="xtick_8">
     <g id="line2d_8">
      <g>
       <use style="stroke:#000000;stroke-width:0.8;" x="356.463752" xlink:href="#m87ade56462" y="307.584"/>
      </g>
     </g>
     <g id="text_8">
      <!-- 7.5 -->
      <g transform="translate(348.512189 322.182437)scale(0.1 -0.1)">
       <use xlink:href="#DejaVuSans-37"/>
       <use x="63.623047" xlink:href="#DejaVuSans-2e"/>
       <use x="95.410156" xlink:href="#DejaVuSans-35"/>
      </g>
     </g>
    </g>
    <g id="xtick_9">
     <g id="line2d_9">
      <g>
       <use style="stroke:#000000;stroke-width:0.8;" x="396.565002" xlink:href="#m87ade56462" y="307.584"/>
      </g>
     </g>
     <g id="text_9">
      <!-- 10.0 -->
      <g transform="translate(385.43219 322.182437)scale(0.1 -0.1)">
       <use xlink:href="#DejaVuSans-31"/>
       <use x="63.623047" xlink:href="#DejaVuSans-30"/>
       <use x="127.246094" xlink:href="#DejaVuSans-2e"/>
       <use x="159.033203" xlink:href="#DejaVuSans-30"/>
      </g>
     </g>
    </g>
   </g>
   <g id="matplotlib.axis_2">
    <g id="ytick_1">
     <g id="line2d_10">
      <defs>
       <path d="M 0 0 
L -3.5 0 
" id="m5c2ee043af" style="stroke:#000000;stroke-width:0.8;"/>
      </defs>
      <g>
       <use style="stroke:#000000;stroke-width:0.8;" x="57.6" xlink:href="#m5c2ee043af" y="293.681575"/>
      </g>
     </g>
     <g id="text_10">
      <!-- −10.0 -->
      <g transform="translate(19.954687 297.480793)scale(0.1 -0.1)">
       <use xlink:href="#DejaVuSans-2212"/>
       <use x="83.789062" xlink:href="#DejaVuSans-31"/>
       <use x="147.412109" xlink:href="#DejaVuSans-30"/>
       <use x="211.035156" xlink:href="#DejaVuSans-2e"/>
       <use x="242.822266" xlink:href="#DejaVuSans-30"/>
      </g>
     </g>
    </g>
    <g id="ytick_2">
     <g id="line2d_11">
      <g>
       <use style="stroke:#000000;stroke-width:0.8;" x="57.6" xlink:href="#m5c2ee043af" y="262.101175"/>
      </g>
     </g>
     <g id="text_11">
      <!-- −7.5 -->
      <g transform="translate(26.317187 265.900393)scale(0.1 -0.1)">
       <use xlink:href="#DejaVuSans-2212"/>
       <use x="83.789062" xlink:href="#DejaVuSans-37"/>
       <use x="147.412109" xlink:href="#DejaVuSans-2e"/>
       <use x="179.199219" xlink:href="#DejaVuSans-35"/>
      </g>
     </g>
    </g>
    <g id="ytick_3">
     <g id="line2d_12">
      <g>
       <use style="stroke:#000000;stroke-width:0.8;" x="57.6" xlink:href="#m5c2ee043af" y="230.520774"/>
      </g>
     </g>
     <g id="text_12">
      <!-- −5.0 -->
      <g transform="translate(26.317187 234.319993)scale(0.1 -0.1)">
       <use xlink:href="#DejaVuSans-2212"/>
       <use x="83.789062" xlink:href="#DejaVuSans-35"/>
       <use x="147.412109" xlink:href="#DejaVuSans-2e"/>
       <use x="179.199219" xlink:href="#DejaVuSans-30"/>
      </g>
     </g>
    </g>
    <g id="ytick_4">
     <g id="line2d_13">
      <g>
       <use style="stroke:#000000;stroke-width:0.8;" x="57.6" xlink:href="#m5c2ee043af" y="198.940374"/>
      </g>
     </g>
     <g id="text_13">
      <!-- −2.5 -->
      <g transform="translate(26.317187 202.739593)scale(0.1 -0.1)">
       <use xlink:href="#DejaVuSans-2212"/>
       <use x="83.789062" xlink:href="#DejaVuSans-32"/>
       <use x="147.412109" xlink:href="#DejaVuSans-2e"/>
       <use x="179.199219" xlink:href="#DejaVuSans-35"/>
      </g>
     </g>
    </g>
    <g id="ytick_5">
     <g id="line2d_14">
      <g>
       <use style="stroke:#000000;stroke-width:0.8;" x="57.6" xlink:href="#m5c2ee043af" y="167.359974"/>
      </g>
     </g>
     <g id="text_14">
      <!-- 0.0 -->
      <g transform="translate(34.696875 171.159193)scale(0.1 -0.1)">
       <use xlink:href="#DejaVuSans-30"/>
       <use x="63.623047" xlink:href="#DejaVuSans-2e"/>
       <use x="95.410156" xlink:href="#DejaVuSans-30"/>
      </g>
     </g>
    </g>
    <g id="ytick_6">
     <g id="line2d_15">
      <g>
       <use style="stroke:#000000;stroke-width:0.8;" x="57.6" xlink:href="#m5c2ee043af" y="135.779574"/>
      </g>
     </g>
     <g id="text_15">
      <!-- 2.5 -->
      <g transform="translate(34.696875 139.578793)scale(0.1 -0.1)">
       <use xlink:href="#DejaVuSans-32"/>
       <use x="63.623047" xlink:href="#DejaVuSans-2e"/>
       <use x="95.410156" xlink:href="#DejaVuSans-35"/>
      </g>
     </g>
    </g>
    <g id="ytick_7">
     <g id="line2d_16">
      <g>
       <use style="stroke:#000000;stroke-width:0.8;" x="57.6" xlink:href="#m5c2ee043af" y="104.199174"/>
      </g>
     </g>
     <g id="text_16">
      <!-- 5.0 -->
      <g transform="translate(34.696875 107.998393)scale(0.1 -0.1)">
       <use xlink:href="#DejaVuSans-35"/>
       <use x="63.623047" xlink:href="#DejaVuSans-2e"/>
       <use x="95.410156" xlink:href="#DejaVuSans-30"/>
      </g>
     </g>
    </g>
    <g id="ytick_8">
     <g id="line2d_17">
      <g>
       <use style="stroke:#000000;stroke-width:0.8;" x="57.6" xlink:href="#m5c2ee043af" y="72.618774"/>
      </g>
     </g>
     <g id="text_17">
      <!-- 7.5 -->
      <g transform="translate(34.696875 76.417993)scale(0.1 -0.1)">
       <use xlink:href="#DejaVuSans-37"/>
       <use x="63.623047" xlink:href="#DejaVuSans-2e"/>
       <use x="95.410156" xlink:href="#DejaVuSans-35"/>
      </g>
     </g>
    </g>
    <g id="ytick_9">
     <g id="line2d_18">
      <g>
       <use style="stroke:#000000;stroke-width:0.8;" x="57.6" xlink:href="#m5c2ee043af" y="41.038374"/>
      </g>
     </g>
     <g id="text_18">
      <!-- 10.0 -->
      <g transform="translate(28.334375 44.837592)scale(0.1 -0.1)">
       <use xlink:href="#DejaVuSans-31"/>
       <use x="63.623047" xlink:href="#DejaVuSans-30"/>
       <use x="127.246094" xlink:href="#DejaVuSans-2e"/>
       <use x="159.033203" xlink:href="#DejaVuSans-30"/>
      </g>
     </g>
    </g>
   </g>
   <g id="line2d_19">
    <path clip-path="url(#pe4eddc7341)" d="M 75.754998 70.762435 
L 82.30214 74.975927 
L 88.849283 79.189419 
L 95.396426 83.402911 
L 101.943569 87.616403 
L 108.490712 91.829895 
L 115.037855 96.043387 
L 121.584998 100.256879 
L 128.132141 104.470371 
L 134.679284 108.683863 
L 141.226427 112.897355 
L 147.77357 117.110847 
L 154.320713 121.32434 
L 160.867856 125.537832 
L 167.414999 129.751324 
L 173.962142 133.964816 
L 180.509285 138.178308 
L 187.056428 142.3918 
L 193.603571 146.605292 
L 200.150714 150.818784 
L 206.697857 155.032276 
L 213.245 159.245768 
L 219.792143 163.45926 
L 226.339286 167.672752 
L 232.886429 171.886244 
L 239.433571 176.099736 
L 245.980714 180.313228 
L 252.527857 184.52672 
L 259.075 188.740212 
L 265.622143 192.953704 
L 272.169286 197.167196 
L 278.716429 201.380689 
L 285.263572 205.594181 
L 291.810715 209.807673 
L 298.357858 214.021165 
L 304.905001 218.234657 
L 311.452144 222.448149 
L 317.999287 226.661641 
L 324.54643 230.875133 
L 331.093573 235.088625 
L 337.640716 239.302117 
L 344.187859 243.515609 
L 350.735002 247.729101 
L 357.282145 251.942593 
L 363.829288 256.156085 
L 370.376431 260.369577 
L 376.923574 264.583069 
L 383.470717 268.796561 
L 390.01786 273.010053 
L 396.565002 277.223545 
" style="fill:none;stroke:#ffff00;stroke-linecap:square;stroke-width:1.5;"/>
   </g>
   <g id="patch_3">
    <path d="M 57.6 307.584 
L 57.6 41.472 
" style="fill:none;stroke:#000000;stroke-linecap:square;stroke-linejoin:miter;stroke-width:0.8;"/>
   </g>
   <g id="patch_4">
    <path d="M 414.72 307.584 
L 414.72 41.472 
" style="fill:none;stroke:#000000;stroke-linecap:square;stroke-linejoin:miter;stroke-width:0.8;"/>
   </g>
   <g id="patch_5">
    <path d="M 57.6 307.584 
L 414.72 307.584 
" style="fill:none;stroke:#000000;stroke-linecap:square;stroke-linejoin:miter;stroke-width:0.8;"/>
   </g>
   <g id="patch_6">
    <path d="M 57.6 41.472 
L 414.72 41.472 
" style="fill:none;stroke:#000000;stroke-linecap:square;stroke-linejoin:miter;stroke-width:0.8;"/>
   </g>
  </g>
 </g>
 <defs>
  <clipPath id="pe4eddc7341">
   <rect height="266.112" width="357.12" x="57.6" y="41.472"/>
  </clipPath>
 </defs>
</svg>
